<svg version="1.1" xmlns="http://www.w3.org/2000/svg" width="500px" height="371.521px">
<path fill="#00bfff" d="M391.728,182.251v1.003c0,60.222,44.653,110.381,108.272,110.381v77.887
	c-59.014,0-109.411-24.416-143.55-63.284l24.309,57.138h-87.625l-28.645-74.35H114.231l-28.649,74.35H0l31.81-74.717
	c83.236-37.229,176.643-68.688,277.619-92.932l0,0c-0.216-3.635-0.317-7.253-0.317-10.931v-1.024C309.111,83.641,389.171,0,500,0
	v72.878C436.376,72.878,391.728,122.034,391.728,182.251z M297.242,169.099c-23.667,3.197-49.07,6.902-75.434,11.141l-32.451-84.218
	l-37.083,96.259c-28.688,5.328-57.66,11.151-86.062,17.472L153.951,3.591h72.867L297.242,169.099z"/>
</svg>
